<svg width="1329" height="367" viewBox="0 0 1329 367" fill="none" xmlns="http://www.w3.org/2000/svg">
<path d="M0.270388 264.186L0.167711 53.2692C0.17053 38.5328 -1.87047 24.3673 8.21177 12.3016C20.238 -2.09052 36.8245 0.132486 53.5436 0.113159L95.8913 0.175974L128.96 0.0825624C141.226 -0.0116566 153.274 -0.258494 165.498 1.10768C193.337 4.12873 219.609 15.5208 240.841 33.7807C267.266 56.4718 284.955 90.3479 287.628 125.157C286.283 128.84 286.899 142.482 286.907 147.137L286.919 231.407C286.903 239.822 286.855 248.233 286.907 256.648C286.915 257.566 287.326 258.352 287.717 259.153C284.995 272.839 275.649 285.965 260.784 288.534C251.857 290.076 239.073 289.327 229.764 289.331L90.0965 289.275C74.2307 289.279 55.256 289.851 39.7316 288.997C43.072 269.831 50.903 246.876 60.3656 229.816C82.7015 189.552 119.156 165.695 162.53 153.173C159.659 169.621 154.993 188.211 151.683 205.001C165.099 208.057 177.919 211.041 191.505 213.614L205.541 147.584C206.354 143.731 207.284 139.825 208.001 135.96C210.119 124.511 214.677 113.04 208.126 102.139C205.581 97.9467 201.792 94.6526 197.287 92.7167C192.266 90.5303 186.649 90.0238 181.374 88.7535C151.063 81.4523 119.615 76.3387 89.4313 68.703C86.3909 81.3758 84.0254 94.6059 81.0128 107.517C85.0626 108.051 91.6563 109.653 95.7722 110.537C104.039 112.293 112.296 114.097 120.542 115.949C124.937 116.955 129.869 118.26 134.252 118.884C116.53 125.641 104.174 131.162 88.3015 141.323C54.6569 162.86 29.0346 192.716 12.6139 229.116C7.33198 240.82 3.0273 251.446 0.270388 264.186Z" fill="#A09990"/>
<path d="M287.628 125.157C288.421 133.604 288.072 146.839 288.08 155.685L288.036 242C288.028 245.612 288.188 255.891 287.717 259.153C287.326 258.352 286.915 257.566 286.907 256.648C286.855 248.233 286.903 239.822 286.919 231.407L286.907 147.137C286.899 142.482 286.283 128.84 287.628 125.157Z" fill="#A09990"/>
<path d="M408.405 225.135C408.405 223.976 408.405 222.818 409.178 221.66L490.259 95.7898C491.418 93.8593 491.418 91.9288 490.259 89.9983C489.101 88.0678 487.557 86.9095 485.24 86.9095H414.197C410.722 86.9095 408.405 84.2067 408.405 80.7318V25.9051C408.405 22.4302 410.722 19.7274 414.197 19.7274H569.411C572.886 19.7274 575.588 22.4302 575.588 25.9051V84.9789C575.588 86.1373 575.202 87.2956 574.43 88.0678L493.348 214.324C492.19 215.868 492.19 218.185 493.348 220.115C494.507 222.046 496.437 223.204 498.368 223.204H569.411C572.886 223.204 575.588 225.907 575.588 228.996V284.208C575.588 287.683 572.886 290 569.411 290H414.197C410.722 290 408.405 287.683 408.405 284.208V225.135ZM592.93 25.9051C592.93 22.4302 595.246 19.7274 598.721 19.7274H753.935C757.41 19.7274 760.113 22.4302 760.113 25.9051V80.7318C760.113 84.2067 757.41 86.9095 753.935 86.9095H665.517C662.428 86.9095 659.726 89.2261 659.726 92.701V115.867C659.726 118.956 662.428 121.659 665.517 121.659H733.858C736.946 121.659 739.649 124.362 739.649 127.45V182.663C739.649 185.752 736.946 188.455 733.858 188.455H665.517C662.428 188.455 659.726 191.157 659.726 194.246V217.413C659.726 220.501 662.428 223.204 665.517 223.204H753.935C757.41 223.204 760.113 225.907 760.113 228.996V284.208C760.113 287.683 757.41 290 753.935 290H598.721C595.246 290 592.93 287.683 592.93 284.208C592.93 198.107 592.93 112.006 592.93 25.9051ZM778.441 25.9051C778.441 22.4302 780.757 19.7274 784.232 19.7274H840.989C843.306 19.7274 846.009 21.6579 846.395 23.9746L870.333 118.57C871.105 120.887 873.036 122.045 874.966 121.659C876.897 121.273 878.441 119.728 878.441 117.412V25.9051C878.441 22.4302 881.144 19.7274 884.619 19.7274H939.446C942.921 19.7274 945.237 22.4302 945.237 25.9051V284.208C945.237 287.683 942.921 290 939.446 290H882.689C880.372 290 878.055 288.456 877.283 286.139L853.345 191.157C852.572 189.227 850.642 188.069 848.711 188.455C846.781 188.841 845.237 190.385 845.237 192.702V284.208C845.237 287.683 842.534 290 839.059 290H784.232C780.757 290 778.441 287.683 778.441 284.208V25.9051ZM968.853 25.9051C968.853 22.4302 971.17 19.7274 974.645 19.7274H1031.4C1033.72 19.7274 1036.42 21.6579 1036.81 23.9746L1060.75 118.57C1061.52 120.887 1063.45 122.045 1065.38 121.659C1067.31 121.273 1068.85 119.728 1068.85 117.412V25.9051C1068.85 22.4302 1071.56 19.7274 1075.03 19.7274H1129.86C1133.33 19.7274 1135.65 22.4302 1135.65 25.9051V284.208C1135.65 287.683 1133.33 290 1129.86 290H1073.1C1070.78 290 1068.47 288.456 1067.7 286.139L1043.76 191.157C1042.98 189.227 1041.05 188.069 1039.12 188.455C1037.19 188.841 1035.65 190.385 1035.65 192.702V284.208C1035.65 287.683 1032.95 290 1029.47 290H974.645C971.17 290 968.853 287.683 968.853 284.208V25.9051ZM1237.64 223.204C1256.95 223.204 1254.25 167.219 1254.63 154.864C1254.63 125.134 1254.63 86.9095 1237.64 86.9095C1221.04 86.9095 1221.04 125.134 1221.04 154.864C1221.04 167.219 1218.34 223.204 1237.64 223.204ZM1154.25 154.864C1154.25 92.3149 1155.02 19.7274 1237.64 19.7274C1320.27 19.7274 1321.43 92.3149 1321.43 154.864C1321.43 217.799 1320.27 290 1237.64 290C1155.02 290 1154.25 217.799 1154.25 154.864Z" fill="#A09990"/>
</svg>
