<svg width="463" height="466" viewBox="0 0 463 466" fill="none" xmlns="http://www.w3.org/2000/svg">
<path d="M0.43446 424.495L0.269479 85.5931C0.274008 61.9146 -3.00547 39.1534 13.1947 19.7663C32.5184 -3.35905 59.1698 0.212879 86.034 0.181824L154.079 0.282755L207.213 0.132661C226.923 -0.0187298 246.28 -0.41535 265.922 1.77982C310.654 6.63405 352.869 24.9389 386.984 54.279C429.445 90.7391 457.866 145.171 462.162 201.102C460.001 207.021 460.991 228.941 461.004 236.42L461.023 371.825C460.997 385.347 460.92 398.862 461.004 412.384C461.017 413.859 461.677 415.12 462.304 416.408C457.931 438.398 442.914 459.49 419.028 463.617C404.685 466.095 384.144 464.892 369.186 464.898L144.767 464.808C119.274 464.814 88.7856 465.733 63.8409 464.361C69.2082 433.565 81.7912 396.682 96.9956 369.269C132.885 304.572 191.46 266.239 261.154 246.118C256.541 272.547 249.043 302.418 243.725 329.397C265.282 334.307 285.882 339.101 307.71 343.235L330.264 237.138C331.571 230.947 333.065 224.671 334.217 218.46C337.62 200.064 344.944 181.633 334.417 164.117C330.328 157.381 324.241 152.088 317.001 148.977C308.933 145.464 299.908 144.651 291.433 142.609C242.729 130.878 192.197 122.661 143.699 110.392C138.813 130.755 135.012 152.013 130.172 172.758C136.679 173.617 147.274 176.19 153.887 177.612C167.171 180.433 180.438 183.332 193.687 186.308C200.749 187.923 208.674 190.021 215.717 191.023C187.241 201.881 167.387 210.752 141.883 227.078C87.8229 261.684 46.6528 309.657 20.268 368.144C11.7811 386.951 4.86427 404.025 0.43446 424.495Z" fill="#1A1714"/>
<path d="M462.162 201.102C463.436 214.676 462.875 235.942 462.888 250.155L462.817 388.847C462.804 394.65 463.061 411.167 462.304 416.408C461.677 415.12 461.017 413.859 461.004 412.384C460.92 398.862 460.997 385.347 461.023 371.825L461.004 236.42C460.991 228.941 460.001 207.021 462.162 201.102Z" fill="#1A1714"/>
</svg>
